# xmcd
#
# Track frame offsets:
#	150
#	12209
#	23745
#	34481
#	45678
#	59711
#	72421
#	85545
#	94238
#	104066
#	116526
#	129033
#	138961
#	148226
#	159517
#	168781
#	180394
#	190923
#	201879
#	212223
#	220659
#	230431
#	245259
#	259487
#
# Disc length: 3597 seconds
#
# Revision: 1
# Processed by: cddbd v1.5.2PL0 Copyright (c) Steve Scherf et al.
# Submitted via: audiograbber 1.83.01
#
DISCID=5b0e0b18
DTITLE=Disc 2 - Precursors 1955 - 1961 - New Orleans Roots of Soul
DYEAR=2016
DGENRE=Vintage Blues
TTITLE0=Guitar Slim - I Got Sumpin' For You
TTITLE1=Smiley Lewis - I Hear You Knocking
TTITLE2=Clarence "Frogman" Henry - Ain't Got No Home
TTITLE3=Clifton Chenier - Baby Please
TTITLE4=Slim Harpo - I'm a King Bee
TTITLE5=Larry Williams - Just Because
TTITLE6=Clifton Chenier - My Soul
TTITLE7=Art Neville - The Dummy
TTITLE8=T V Slim - Flat Foot Sam
TTITLE9=Larry Williams - Bony Moronie
TTITLE10=Larry Williams - Slow Down
TTITLE11=Larry Williams - Dizzy Miss Lizzy
TTITLE12=Art Neville - Zing Zing
TTITLE13=Clarence "Frogman" Henry - I'm In Love
TTITLE14=Art Neville - What's Going On
TTITLE15=Huey "Piano" Smith and the Clowns - Don't You Just Know It
TTITLE16=Art Neville - Belle Amie
TTITLE17=Art Neville - Arabian Love Call
TTITLE18=Allen Toussaint - Chico
TTITLE19=Larry Williams - She Said "Yeah"
TTITLE20=Eddie Bo - I'll Do Anything
TTITLE21=Snooks Eaglin - That Certain Door
TTITLE22=Louis Armstrong - I'm Just a Lucky So And So
TTITLE23=Mac Rebennack (Dr. John) - Sahara
EXTD=Produced in France
EXTT0=
EXTT1=
EXTT2=
EXTT3=
EXTT4=
EXTT5=
EXTT6=
EXTT7=
EXTT8=
EXTT9=
EXTT10=
EXTT11=
EXTT12=
EXTT13=
EXTT14=
EXTT15=
EXTT16=
EXTT17=
EXTT18=
EXTT19=
EXTT20=
EXTT21=
EXTT22=
EXTT23=
PLAYORDER=
